ply
format ascii 1.0
comment Created by Blender 2.82 (sub 7) - www.blender.org, source file: 'lancetta.blend'
element vertex 320
property float x
property float y
property float z
property float nx
property float ny
property float nz
property float s
property float t
property uchar red
property uchar green
property uchar blue
property uchar alpha
element face 67
property list uchar uint vertex_indices
end_header
-0.660000 0.066000 -0.000000 0.000000 0.950107 -0.311924 1.000000 0.500000 0 0 0 255
0.534600 0.066000 0.000000 0.000000 0.950107 -0.311924 1.000000 0.952500 0 0 0 255
0.534600 0.064732 -0.003863 0.000000 0.950107 -0.311924 0.968750 0.952500 0 0 0 255
-0.660000 0.064732 -0.003863 0.000000 0.950107 -0.311924 0.968750 0.500000 0 0 0 255
-0.660000 0.064732 -0.003863 0.000000 0.703174 -0.711018 0.968750 0.500000 0 0 0 255
0.534600 0.064732 -0.003863 0.000000 0.703174 -0.711018 0.968750 0.952500 0 0 0 255
0.534600 0.060976 -0.007577 0.000000 0.703174 -0.711018 0.937500 0.952500 0 0 0 255
-0.660000 0.060976 -0.007577 0.000000 0.703174 -0.711018 0.937500 0.500000 0 0 0 255
-0.660000 0.060976 -0.007577 0.000000 0.489440 -0.872037 0.937500 0.500000 0 0 0 255
0.534600 0.060976 -0.007577 0.000000 0.489440 -0.872037 0.937500 0.952500 0 0 0 255
0.534600 0.054877 -0.011000 0.000000 0.489440 -0.872037 0.906250 0.952500 0 0 0 255
-0.660000 0.054877 -0.011000 0.000000 0.489440 -0.872037 0.906250 0.500000 0 0 0 255
-0.660000 0.054877 -0.011000 0.000000 0.343331 -0.939215 0.906250 0.500000 0 0 0 255
0.534600 0.054877 -0.011000 0.000000 0.343331 -0.939215 0.906250 0.952500 0 0 0 255
0.534600 0.046669 -0.014001 0.000000 0.343331 -0.939215 0.875000 0.952500 0 0 0 255
-0.660000 0.046669 -0.014001 0.000000 0.343331 -0.939215 0.875000 0.500000 0 0 0 255
-0.660000 0.046669 -0.014001 0.000000 0.239065 -0.971004 0.875000 0.500000 0 0 0 255
0.534600 0.046669 -0.014001 0.000000 0.239065 -0.971004 0.875000 0.952500 0 0 0 255
0.534600 0.036668 -0.016463 0.000000 0.239065 -0.971004 0.843750 0.952500 0 0 0 255
-0.660000 0.036668 -0.016463 0.000000 0.239065 -0.971004 0.843750 0.500000 0 0 0 255
-0.660000 0.036668 -0.016463 0.000000 0.158331 -0.987386 0.843750 0.500000 0 0 0 255
0.534600 0.036668 -0.016463 0.000000 0.158331 -0.987386 0.843750 0.952500 0 0 0 255
0.534600 0.025257 -0.018293 0.000000 0.158331 -0.987386 0.812500 0.952500 0 0 0 255
-0.660000 0.025257 -0.018293 0.000000 0.158331 -0.987386 0.812500 0.500000 0 0 0 255
-0.660000 0.025257 -0.018293 0.000000 0.090629 -0.995885 0.812500 0.500000 0 0 0 255
0.534600 0.025257 -0.018293 0.000000 0.090629 -0.995885 0.812500 0.952500 0 0 0 255
0.534600 0.012876 -0.019420 0.000000 0.090629 -0.995885 0.781250 0.952500 0 0 0 255
-0.660000 0.012876 -0.019420 0.000000 0.090629 -0.995885 0.781250 0.500000 0 0 0 255
-0.660000 0.012876 -0.019420 0.000000 0.029535 -0.999564 0.781250 0.500000 0 0 0 255
0.534600 0.012876 -0.019420 0.000000 0.029535 -0.999564 0.781250 0.952500 0 0 0 255
0.534600 0.000000 -0.019800 0.000000 0.029535 -0.999564 0.750000 0.952500 0 0 0 255
-0.660000 0.000000 -0.019800 0.000000 0.029535 -0.999564 0.750000 0.500000 0 0 0 255
-0.660000 0.000000 -0.019800 0.000000 -0.029534 -0.999564 0.750000 0.500000 0 0 0 255
0.534600 0.000000 -0.019800 0.000000 -0.029534 -0.999564 0.750000 0.952500 0 0 0 255
0.534600 -0.012876 -0.019420 0.000000 -0.029534 -0.999564 0.718750 0.952500 0 0 0 255
-0.660000 -0.012876 -0.019420 0.000000 -0.029534 -0.999564 0.718750 0.500000 0 0 0 255
-0.660000 -0.012876 -0.019420 0.000000 -0.090630 -0.995885 0.718750 0.500000 0 0 0 255
0.534600 -0.012876 -0.019420 0.000000 -0.090630 -0.995885 0.718750 0.952500 0 0 0 255
0.534600 -0.025257 -0.018293 0.000000 -0.090630 -0.995885 0.687500 0.952500 0 0 0 255
-0.660000 -0.025257 -0.018293 0.000000 -0.090630 -0.995885 0.687500 0.500000 0 0 0 255
-0.660000 -0.025257 -0.018293 0.000000 -0.158330 -0.987386 0.687500 0.500000 0 0 0 255
0.534600 -0.025257 -0.018293 0.000000 -0.158330 -0.987386 0.687500 0.952500 0 0 0 255
0.534600 -0.036668 -0.016463 0.000000 -0.158330 -0.987386 0.656250 0.952500 0 0 0 255
-0.660000 -0.036668 -0.016463 0.000000 -0.158330 -0.987386 0.656250 0.500000 0 0 0 255
-0.660000 -0.036668 -0.016463 0.000000 -0.239065 -0.971004 0.656250 0.500000 0 0 0 255
0.534600 -0.036668 -0.016463 0.000000 -0.239065 -0.971004 0.656250 0.952500 0 0 0 255
0.534600 -0.046669 -0.014001 0.000000 -0.239065 -0.971004 0.625000 0.952500 0 0 0 255
-0.660000 -0.046669 -0.014001 0.000000 -0.239065 -0.971004 0.625000 0.500000 0 0 0 255
-0.660000 -0.046669 -0.014001 0.000000 -0.343331 -0.939215 0.625000 0.500000 0 0 0 255
0.534600 -0.046669 -0.014001 0.000000 -0.343331 -0.939215 0.625000 0.952500 0 0 0 255
0.534600 -0.054877 -0.011000 0.000000 -0.343331 -0.939215 0.593750 0.952500 0 0 0 255
-0.660000 -0.054877 -0.011000 0.000000 -0.343331 -0.939215 0.593750 0.500000 0 0 0 255
-0.660000 -0.054877 -0.011000 0.000000 -0.489440 -0.872037 0.593750 0.500000 0 0 0 255
0.534600 -0.054877 -0.011000 0.000000 -0.489440 -0.872037 0.593750 0.952500 0 0 0 255
0.534600 -0.060976 -0.007577 0.000000 -0.489440 -0.872037 0.562500 0.952500 0 0 0 255
-0.660000 -0.060976 -0.007577 0.000000 -0.489440 -0.872037 0.562500 0.500000 0 0 0 255
-0.660000 -0.060976 -0.007577 0.000000 -0.703174 -0.711018 0.562500 0.500000 0 0 0 255
0.534600 -0.060976 -0.007577 0.000000 -0.703174 -0.711018 0.562500 0.952500 0 0 0 255
0.534600 -0.064732 -0.003863 0.000000 -0.703174 -0.711018 0.531250 0.952500 0 0 0 255
-0.660000 -0.064732 -0.003863 0.000000 -0.703174 -0.711018 0.531250 0.500000 0 0 0 255
-0.660000 -0.064732 -0.003863 0.000000 -0.950107 -0.311924 0.531250 0.500000 0 0 0 255
0.534600 -0.064732 -0.003863 0.000000 -0.950107 -0.311924 0.531250 0.952500 0 0 0 255
0.534600 -0.066000 0.000000 0.000000 -0.950107 -0.311924 0.500000 0.952500 0 0 0 255
-0.660000 -0.066000 -0.000000 0.000000 -0.950107 -0.311924 0.500000 0.500000 0 0 0 255
-0.660000 -0.066000 -0.000000 -0.000000 -0.950106 0.311926 0.500000 0.500000 0 0 0 255
0.534600 -0.066000 0.000000 -0.000000 -0.950106 0.311926 0.500000 0.952500 0 0 0 255
0.534600 -0.064732 0.003863 -0.000000 -0.950106 0.311926 0.468750 0.952500 0 0 0 255
-0.660000 -0.064732 0.003863 -0.000000 -0.950106 0.311926 0.468750 0.500000 0 0 0 255
-0.660000 -0.064732 0.003863 -0.000000 -0.703173 0.711019 0.468750 0.500000 0 0 0 255
0.534600 -0.064732 0.003863 -0.000000 -0.703173 0.711019 0.468750 0.952500 0 0 0 255
0.534600 -0.060976 0.007577 -0.000000 -0.703173 0.711019 0.437500 0.952500 0 0 0 255
-0.660000 -0.060976 0.007577 -0.000000 -0.703173 0.711019 0.437500 0.500000 0 0 0 255
-0.660000 -0.060976 0.007577 -0.000000 -0.489439 0.872037 0.437500 0.500000 0 0 0 255
0.534600 -0.060976 0.007577 -0.000000 -0.489439 0.872037 0.437500 0.952500 0 0 0 255
0.534600 -0.054877 0.011000 -0.000000 -0.489439 0.872037 0.406250 0.952500 0 0 0 255
-0.660000 -0.054877 0.011000 -0.000000 -0.489439 0.872037 0.406250 0.500000 0 0 0 255
-0.660000 -0.054877 0.011000 -0.000000 -0.343330 0.939215 0.406250 0.500000 0 0 0 255
0.534600 -0.054877 0.011000 -0.000000 -0.343330 0.939215 0.406250 0.952500 0 0 0 255
0.534600 -0.046669 0.014001 -0.000000 -0.343330 0.939215 0.375000 0.952500 0 0 0 255
-0.660000 -0.046669 0.014001 -0.000000 -0.343330 0.939215 0.375000 0.500000 0 0 0 255
-0.660000 -0.046669 0.014001 -0.000000 -0.239064 0.971004 0.375000 0.500000 0 0 0 255
0.534600 -0.046669 0.014001 -0.000000 -0.239064 0.971004 0.375000 0.952500 0 0 0 255
0.534600 -0.036668 0.016463 -0.000000 -0.239064 0.971004 0.343750 0.952500 0 0 0 255
-0.660000 -0.036668 0.016463 -0.000000 -0.239064 0.971004 0.343750 0.500000 0 0 0 255
-0.660000 -0.036668 0.016463 -0.000000 -0.158330 0.987386 0.343750 0.500000 0 0 0 255
0.534600 -0.036668 0.016463 -0.000000 -0.158330 0.987386 0.343750 0.952500 0 0 0 255
0.534600 -0.025257 0.018293 -0.000000 -0.158330 0.987386 0.312500 0.952500 0 0 0 255
-0.660000 -0.025257 0.018293 -0.000000 -0.158330 0.987386 0.312500 0.500000 0 0 0 255
-0.660000 -0.025257 0.018293 -0.000000 -0.090629 0.995885 0.312500 0.500000 0 0 0 255
0.534600 -0.025257 0.018293 -0.000000 -0.090629 0.995885 0.312500 0.952500 0 0 0 255
0.534600 -0.012876 0.019420 -0.000000 -0.090629 0.995885 0.281250 0.952500 0 0 0 255
-0.660000 -0.012876 0.019419 -0.000000 -0.090629 0.995885 0.281250 0.500000 0 0 0 255
-0.660000 -0.012876 0.019419 -0.000000 -0.029534 0.999564 0.281250 0.500000 0 0 0 255
0.534600 -0.012876 0.019420 -0.000000 -0.029534 0.999564 0.281250 0.952500 0 0 0 255
0.534600 0.000000 0.019800 -0.000000 -0.029534 0.999564 0.250000 0.952500 0 0 0 255
-0.660000 0.000000 0.019800 -0.000000 -0.029534 0.999564 0.250000 0.500000 0 0 0 255
-0.660000 0.000000 0.019800 -0.000000 0.029535 0.999564 0.250000 0.500000 0 0 0 255
0.534600 0.000000 0.019800 -0.000000 0.029535 0.999564 0.250000 0.952500 0 0 0 255
0.534600 0.012876 0.019420 -0.000000 0.029535 0.999564 0.218750 0.952500 0 0 0 255
-0.660000 0.012876 0.019419 -0.000000 0.029535 0.999564 0.218750 0.500000 0 0 0 255
-0.660000 0.012876 0.019419 -0.000000 0.090630 0.995885 0.218750 0.500000 0 0 0 255
0.534600 0.012876 0.019420 -0.000000 0.090630 0.995885 0.218750 0.952500 0 0 0 255
0.534600 0.025257 0.018293 -0.000000 0.090630 0.995885 0.187500 0.952500 0 0 0 255
-0.660000 0.025257 0.018293 -0.000000 0.090630 0.995885 0.187500 0.500000 0 0 0 255
-0.660000 0.025257 0.018293 -0.000000 0.158331 0.987386 0.187500 0.500000 0 0 0 255
0.534600 0.025257 0.018293 -0.000000 0.158331 0.987386 0.187500 0.952500 0 0 0 255
0.534600 0.036668 0.016463 -0.000000 0.158331 0.987386 0.156250 0.952500 0 0 0 255
-0.660000 0.036668 0.016463 -0.000000 0.158331 0.987386 0.156250 0.500000 0 0 0 255
-0.660000 0.036668 0.016463 -0.000000 0.239065 0.971003 0.156250 0.500000 0 0 0 255
0.534600 0.036668 0.016463 -0.000000 0.239065 0.971003 0.156250 0.952500 0 0 0 255
0.534600 0.046669 0.014001 -0.000000 0.239065 0.971003 0.125000 0.952500 0 0 0 255
-0.660000 0.046669 0.014001 -0.000000 0.239065 0.971003 0.125000 0.500000 0 0 0 255
-0.660000 0.046669 0.014001 -0.000000 0.343332 0.939214 0.125000 0.500000 0 0 0 255
0.534600 0.046669 0.014001 -0.000000 0.343332 0.939214 0.125000 0.952500 0 0 0 255
0.534600 0.054877 0.011000 -0.000000 0.343332 0.939214 0.093750 0.952500 0 0 0 255
-0.660000 0.054877 0.011000 -0.000000 0.343332 0.939214 0.093750 0.500000 0 0 0 255
-0.660000 0.054877 0.011000 -0.000000 0.489441 0.872036 0.093750 0.500000 0 0 0 255
0.534600 0.054877 0.011000 -0.000000 0.489441 0.872036 0.093750 0.952500 0 0 0 255
0.534600 0.060976 0.007577 -0.000000 0.489441 0.872036 0.062500 0.952500 0 0 0 255
-0.660000 0.060976 0.007577 -0.000000 0.489441 0.872036 0.062500 0.500000 0 0 0 255
-0.660000 0.060976 0.007577 -0.000000 0.703176 0.711016 0.062500 0.500000 0 0 0 255
0.534600 0.060976 0.007577 -0.000000 0.703176 0.711016 0.062500 0.952500 0 0 0 255
0.534600 0.064732 0.003863 -0.000000 0.703176 0.711016 0.031250 0.952500 0 0 0 255
-0.660000 0.064732 0.003863 -0.000000 0.703176 0.711016 0.031250 0.500000 0 0 0 255
-0.660000 0.064732 0.003863 -0.000000 0.950107 0.311923 0.031250 0.500000 0 0 0 255
0.534600 0.064732 0.003863 -0.000000 0.950107 0.311923 0.031250 0.952500 0 0 0 255
0.534600 0.066000 0.000000 -0.000000 0.950107 0.311923 0.000000 0.952500 0 0 0 255
-0.660000 0.066000 -0.000000 -0.000000 0.950107 0.311923 0.000000 0.500000 0 0 0 255
-0.660000 0.066000 -0.000000 -1.000000 0.000000 0.000000 0.750000 0.490000 0 0 0 255
-0.660000 0.064732 -0.003863 -1.000000 0.000000 0.000000 0.796822 0.485388 0 0 0 255
-0.660000 0.060976 -0.007577 -1.000000 0.000000 0.000000 0.841844 0.471731 0 0 0 255
-0.660000 0.054877 -0.011000 -1.000000 0.000000 0.000000 0.883337 0.449553 0 0 0 255
-0.660000 0.046669 -0.014001 -1.000000 0.000000 0.000000 0.919706 0.419706 0 0 0 255
-0.660000 0.036668 -0.016463 -1.000000 0.000000 0.000000 0.949553 0.383337 0 0 0 255
-0.660000 0.025257 -0.018293 -1.000000 0.000000 0.000000 0.971731 0.341844 0 0 0 255
-0.660000 0.012876 -0.019420 -1.000000 0.000000 0.000000 0.985388 0.296822 0 0 0 255
-0.660000 0.000000 -0.019800 -1.000000 0.000000 0.000000 0.990000 0.250000 0 0 0 255
-0.660000 -0.012876 -0.019420 -1.000000 0.000000 0.000000 0.985388 0.203178 0 0 0 255
-0.660000 -0.025257 -0.018293 -1.000000 0.000000 0.000000 0.971731 0.158156 0 0 0 255
-0.660000 -0.036668 -0.016463 -1.000000 0.000000 0.000000 0.949553 0.116663 0 0 0 255
-0.660000 -0.046669 -0.014001 -1.000000 0.000000 0.000000 0.919706 0.080294 0 0 0 255
-0.660000 -0.054877 -0.011000 -1.000000 0.000000 0.000000 0.883337 0.050447 0 0 0 255
-0.660000 -0.060976 -0.007577 -1.000000 0.000000 0.000000 0.841844 0.028269 0 0 0 255
-0.660000 -0.064732 -0.003863 -1.000000 0.000000 0.000000 0.796822 0.014612 0 0 0 255
-0.660000 -0.066000 -0.000000 -1.000000 0.000000 0.000000 0.750000 0.010000 0 0 0 255
-0.660000 -0.064732 0.003863 -1.000000 0.000000 0.000000 0.703178 0.014612 0 0 0 255
-0.660000 -0.060976 0.007577 -1.000000 0.000000 0.000000 0.658156 0.028269 0 0 0 255
-0.660000 -0.054877 0.011000 -1.000000 0.000000 0.000000 0.616663 0.050447 0 0 0 255
-0.660000 -0.046669 0.014001 -1.000000 0.000000 0.000000 0.580294 0.080294 0 0 0 255
-0.660000 -0.036668 0.016463 -1.000000 0.000000 0.000000 0.550447 0.116663 0 0 0 255
-0.660000 -0.025257 0.018293 -1.000000 0.000000 0.000000 0.528269 0.158156 0 0 0 255
-0.660000 -0.012876 0.019419 -1.000000 0.000000 0.000000 0.514611 0.203179 0 0 0 255
-0.660000 0.000000 0.019800 -1.000000 0.000000 0.000000 0.510000 0.250000 0 0 0 255
-0.660000 0.012876 0.019419 -1.000000 0.000000 0.000000 0.514612 0.296822 0 0 0 255
-0.660000 0.025257 0.018293 -1.000000 0.000000 0.000000 0.528269 0.341844 0 0 0 255
-0.660000 0.036668 0.016463 -1.000000 0.000000 0.000000 0.550447 0.383337 0 0 0 255
-0.660000 0.046669 0.014001 -1.000000 0.000000 0.000000 0.580295 0.419706 0 0 0 255
-0.660000 0.054877 0.011000 -1.000000 0.000000 0.000000 0.616663 0.449553 0 0 0 255
-0.660000 0.060976 0.007577 -1.000000 0.000000 0.000000 0.658156 0.471731 0 0 0 255
-0.660000 0.064732 0.003863 -1.000000 0.000000 0.000000 0.703179 0.485389 0 0 0 255
0.534600 0.132000 -0.000000 0.429096 0.858192 -0.281749 0.250000 0.490000 255 0 2 255
0.798600 0.000000 0.000000 0.429096 0.858192 -0.281749 0.250000 0.250000 255 0 2 255
0.534600 0.129464 -0.007726 0.429096 0.858192 -0.281749 0.296822 0.485388 255 0 2 255
0.534600 0.129464 -0.007726 0.343403 0.660412 -0.667780 0.296822 0.485388 255 0 2 255
0.798600 0.000000 0.000000 0.343403 0.660412 -0.667780 0.250000 0.250000 255 0 2 255
0.534600 0.121952 -0.015154 0.343403 0.660412 -0.667780 0.341844 0.471731 255 0 2 255
0.534600 0.121952 -0.015154 0.266186 0.471782 -0.840575 0.341844 0.471731 255 0 2 255
0.798600 0.000000 0.000000 0.266186 0.471782 -0.840575 0.250000 0.250000 255 0 2 255
0.534600 0.109754 -0.022001 0.266186 0.471782 -0.840575 0.383337 0.449553 255 0 2 255
0.534600 0.109754 -0.022001 0.215797 0.335241 -0.917085 0.383337 0.449553 255 0 2 255
0.798600 0.000000 0.000000 0.215797 0.335241 -0.917085 0.250000 0.250000 255 0 2 255
0.534600 0.093338 -0.028001 0.215797 0.335241 -0.917085 0.419706 0.419706 255 0 2 255
0.534600 0.093338 -0.028001 0.184301 0.234970 -0.954370 0.419706 0.419706 255 0 2 255
0.798600 0.000000 0.000000 0.184301 0.234970 -0.954370 0.250000 0.250000 255 0 2 255
0.534600 0.073335 -0.032926 0.184301 0.234970 -0.954370 0.449553 0.383337 255 0 2 255
0.534600 0.073335 -0.032926 0.164843 0.156165 -0.973879 0.449553 0.383337 255 0 2 255
0.798600 0.000000 0.000000 0.164843 0.156165 -0.973879 0.250000 0.250000 255 0 2 255
0.534600 0.050514 -0.036586 0.164843 0.156165 -0.973879 0.471731 0.341844 255 0 2 255
0.534600 0.050514 -0.036586 0.153511 0.089555 -0.984080 0.471731 0.341844 255 0 2 255
0.798600 0.000000 0.000000 0.153511 0.089555 -0.984080 0.250000 0.250000 255 0 2 255
0.534600 0.025752 -0.038839 0.153511 0.089555 -0.984080 0.485388 0.296822 255 0 2 255
0.534600 0.025752 -0.038839 0.148277 0.029208 -0.988514 0.485388 0.296822 255 0 2 255
0.798600 0.000000 0.000000 0.148277 0.029208 -0.988514 0.250000 0.250000 255 0 2 255
0.534600 0.000000 -0.039600 0.148277 0.029208 -0.988514 0.490000 0.250000 255 0 2 255
0.534600 0.000000 -0.039600 0.148277 -0.029208 -0.988514 0.490000 0.250000 255 0 2 255
0.798600 0.000000 0.000000 0.148277 -0.029208 -0.988514 0.250000 0.250000 255 0 2 255
0.534600 -0.025752 -0.038839 0.148277 -0.029208 -0.988514 0.485388 0.203178 255 0 2 255
0.534600 -0.025752 -0.038839 0.153511 -0.089555 -0.984080 0.485388 0.203178 255 0 2 255
0.798600 0.000000 0.000000 0.153511 -0.089555 -0.984080 0.250000 0.250000 255 0 2 255
0.534600 -0.050514 -0.036586 0.153511 -0.089555 -0.984080 0.471731 0.158156 255 0 2 255
0.534600 -0.050514 -0.036586 0.164843 -0.156164 -0.973879 0.471731 0.158156 255 0 2 255
0.798600 0.000000 0.000000 0.164843 -0.156164 -0.973879 0.250000 0.250000 255 0 2 255
0.534600 -0.073335 -0.032926 0.164843 -0.156164 -0.973879 0.449553 0.116663 255 0 2 255
0.534600 -0.073335 -0.032926 0.184301 -0.234970 -0.954370 0.449553 0.116663 255 0 2 255
0.798600 0.000000 0.000000 0.184301 -0.234970 -0.954370 0.250000 0.250000 255 0 2 255
0.534600 -0.093338 -0.028001 0.184301 -0.234970 -0.954370 0.419706 0.080294 255 0 2 255
0.534600 -0.093338 -0.028001 0.215797 -0.335241 -0.917085 0.419706 0.080294 255 0 2 255
0.798600 0.000000 0.000000 0.215797 -0.335241 -0.917085 0.250000 0.250000 255 0 2 255
0.534600 -0.109754 -0.022001 0.215797 -0.335241 -0.917085 0.383337 0.050447 255 0 2 255
0.534600 -0.109754 -0.022001 0.266186 -0.471782 -0.840575 0.383337 0.050447 255 0 2 255
0.798600 0.000000 0.000000 0.266186 -0.471782 -0.840575 0.250000 0.250000 255 0 2 255
0.534600 -0.121952 -0.015154 0.266186 -0.471782 -0.840575 0.341844 0.028269 255 0 2 255
0.534600 -0.121952 -0.015154 0.343403 -0.660413 -0.667779 0.341844 0.028269 255 0 2 255
0.798600 0.000000 0.000000 0.343403 -0.660413 -0.667779 0.250000 0.250000 255 0 2 255
0.534600 -0.129464 -0.007726 0.343403 -0.660413 -0.667779 0.296822 0.014612 255 0 2 255
0.534600 -0.129464 -0.007726 0.429096 -0.858192 -0.281749 0.296822 0.014612 255 0 2 255
0.798600 0.000000 0.000000 0.429096 -0.858192 -0.281749 0.250000 0.250000 255 0 2 255
0.534600 -0.132000 0.000000 0.429096 -0.858192 -0.281749 0.250000 0.010000 255 0 2 255
0.534600 -0.132000 0.000000 0.429096 -0.858192 0.281750 0.250000 0.010000 255 0 2 255
0.798600 0.000000 0.000000 0.429096 -0.858192 0.281750 0.250000 0.250000 255 0 2 255
0.534600 -0.129464 0.007726 0.429096 -0.858192 0.281750 0.203178 0.014612 255 0 2 255
0.534600 -0.129464 0.007726 0.343403 -0.660412 0.667780 0.203178 0.014612 255 0 2 255
0.798600 0.000000 0.000000 0.343403 -0.660412 0.667780 0.250000 0.250000 255 0 2 255
0.534600 -0.121952 0.015154 0.343403 -0.660412 0.667780 0.158156 0.028269 255 0 2 255
0.534600 -0.121952 0.015154 0.266186 -0.471781 0.840576 0.158156 0.028269 255 0 2 255
0.798600 0.000000 0.000000 0.266186 -0.471781 0.840576 0.250000 0.250000 255 0 2 255
0.534600 -0.109754 0.022001 0.266186 -0.471781 0.840576 0.116663 0.050447 255 0 2 255
0.534600 -0.109754 0.022001 0.215797 -0.335241 0.917085 0.116663 0.050447 255 0 2 255
0.798600 0.000000 0.000000 0.215797 -0.335241 0.917085 0.250000 0.250000 255 0 2 255
0.534600 -0.093338 0.028001 0.215797 -0.335241 0.917085 0.080294 0.080294 255 0 2 255
0.534600 -0.093338 0.028001 0.184300 -0.234969 0.954370 0.080294 0.080294 255 0 2 255
0.798600 0.000000 0.000000 0.184300 -0.234969 0.954370 0.250000 0.250000 255 0 2 255
0.534600 -0.073335 0.032926 0.184300 -0.234969 0.954370 0.050447 0.116663 255 0 2 255
0.534600 -0.073335 0.032926 0.164843 -0.156164 0.973879 0.050447 0.116663 255 0 2 255
0.798600 0.000000 0.000000 0.164843 -0.156164 0.973879 0.250000 0.250000 255 0 2 255
0.534600 -0.050514 0.036586 0.164843 -0.156164 0.973879 0.028269 0.158156 255 0 2 255
0.534600 -0.050514 0.036586 0.153511 -0.089555 0.984080 0.028269 0.158156 255 0 2 255
0.798600 0.000000 0.000000 0.153511 -0.089555 0.984080 0.250000 0.250000 255 0 2 255
0.534600 -0.025752 0.038839 0.153511 -0.089555 0.984080 0.014611 0.203179 255 0 2 255
0.534600 -0.025752 0.038839 0.148277 -0.029208 0.988514 0.014611 0.203179 255 0 2 255
0.798600 0.000000 0.000000 0.148277 -0.029208 0.988514 0.250000 0.250000 255 0 2 255
0.534600 0.000000 0.039600 0.148277 -0.029208 0.988514 0.010000 0.250000 255 0 2 255
0.534600 0.000000 0.039600 0.148277 0.029209 0.988514 0.010000 0.250000 255 0 2 255
0.798600 0.000000 0.000000 0.148277 0.029209 0.988514 0.250000 0.250000 255 0 2 255
0.534600 0.025752 0.038839 0.148277 0.029209 0.988514 0.014612 0.296822 255 0 2 255
0.534600 0.025752 0.038839 0.153511 0.089556 0.984080 0.014612 0.296822 255 0 2 255
0.798600 0.000000 0.000000 0.153511 0.089556 0.984080 0.250000 0.250000 255 0 2 255
0.534600 0.050514 0.036586 0.153511 0.089556 0.984080 0.028269 0.341844 255 0 2 255
0.534600 0.050514 0.036586 0.164843 0.156165 0.973879 0.028269 0.341844 255 0 2 255
0.798600 0.000000 0.000000 0.164843 0.156165 0.973879 0.250000 0.250000 255 0 2 255
0.534600 0.073335 0.032926 0.164843 0.156165 0.973879 0.050447 0.383337 255 0 2 255
0.534600 0.073335 0.032926 0.184300 0.234970 0.954370 0.050447 0.383337 255 0 2 255
0.798600 0.000000 0.000000 0.184300 0.234970 0.954370 0.250000 0.250000 255 0 2 255
0.534600 0.093338 0.028001 0.184300 0.234970 0.954370 0.080295 0.419706 255 0 2 255
0.534600 0.093338 0.028001 0.215797 0.335242 0.917085 0.080295 0.419706 255 0 2 255
0.798600 0.000000 0.000000 0.215797 0.335242 0.917085 0.250000 0.250000 255 0 2 255
0.534600 0.109754 0.022001 0.215797 0.335242 0.917085 0.116663 0.449553 255 0 2 255
0.534600 0.109754 0.022001 0.266186 0.471783 0.840575 0.116663 0.449553 255 0 2 255
0.798600 0.000000 0.000000 0.266186 0.471783 0.840575 0.250000 0.250000 255 0 2 255
0.534600 0.121952 0.015154 0.266186 0.471783 0.840575 0.158156 0.471731 255 0 2 255
0.534600 0.121952 0.015154 0.343404 0.660415 0.667777 0.158156 0.471731 255 0 2 255
0.798600 0.000000 0.000000 0.343404 0.660415 0.667777 0.250000 0.250000 255 0 2 255
0.534600 0.129464 0.007726 0.343404 0.660415 0.667777 0.203179 0.485389 255 0 2 255
0.534600 0.129464 0.007726 0.429096 0.858193 0.281748 0.203179 0.485389 255 0 2 255
0.798600 0.000000 0.000000 0.429096 0.858193 0.281748 0.250000 0.250000 255 0 2 255
0.534600 0.132000 -0.000000 0.429096 0.858193 0.281748 0.250000 0.490000 255 0 2 255
0.534600 0.132000 -0.000000 -1.000000 -0.000000 0.000000 0.750000 0.490000 255 0 2 255
0.534600 0.129464 -0.007726 -1.000000 -0.000000 0.000000 0.796822 0.485388 255 0 2 255
0.534600 0.121952 -0.015154 -1.000000 -0.000000 0.000000 0.841844 0.471731 255 0 2 255
0.534600 0.109754 -0.022001 -1.000000 -0.000000 0.000000 0.883337 0.449553 255 0 2 255
0.534600 0.093338 -0.028001 -1.000000 -0.000000 0.000000 0.919706 0.419706 255 0 2 255
0.534600 0.073335 -0.032926 -1.000000 -0.000000 0.000000 0.949553 0.383337 255 0 2 255
0.534600 0.050514 -0.036586 -1.000000 -0.000000 0.000000 0.971731 0.341844 255 0 2 255
0.534600 0.025752 -0.038839 -1.000000 -0.000000 0.000000 0.985388 0.296822 255 0 2 255
0.534600 0.000000 -0.039600 -1.000000 -0.000000 0.000000 0.990000 0.250000 255 0 2 255
0.534600 0.000000 -0.019800 -1.000000 -0.000000 0.000000 0.870000 0.250000 255 0 2 255
0.534600 0.012876 -0.019420 -1.000000 -0.000000 0.000000 0.867694 0.273411 255 0 2 255
0.534600 0.025257 -0.018293 -1.000000 -0.000000 0.000000 0.860866 0.295922 255 0 2 255
0.534600 0.036668 -0.016463 -1.000000 -0.000000 0.000000 0.849776 0.316668 255 0 2 255
0.534600 0.046669 -0.014001 -1.000000 -0.000000 0.000000 0.834853 0.334853 255 0 2 255
0.534600 0.054877 -0.011000 -1.000000 -0.000000 0.000000 0.816668 0.349776 255 0 2 255
0.534600 0.060976 -0.007577 -1.000000 -0.000000 0.000000 0.795922 0.360865 255 0 2 255
0.534600 0.064732 -0.003863 -1.000000 -0.000000 0.000000 0.773411 0.367694 255 0 2 255
0.534600 0.066000 0.000000 -1.000000 -0.000000 0.000000 0.750000 0.370000 255 0 2 255
0.534600 0.064732 0.003863 -1.000000 -0.000000 0.000000 0.726589 0.367694 255 0 2 255
0.534600 0.060976 0.007577 -1.000000 -0.000000 0.000000 0.704078 0.360866 255 0 2 255
0.534600 0.054877 0.011000 -1.000000 -0.000000 0.000000 0.683332 0.349777 255 0 2 255
0.534600 0.046669 0.014001 -1.000000 -0.000000 0.000000 0.665147 0.334853 255 0 2 255
0.534600 0.036668 0.016463 -1.000000 -0.000000 0.000000 0.650223 0.316669 255 0 2 255
0.534600 0.025257 0.018293 -1.000000 -0.000000 0.000000 0.639134 0.295922 255 0 2 255
0.534600 0.012876 0.019420 -1.000000 -0.000000 0.000000 0.632306 0.273411 255 0 2 255
0.534600 0.000000 0.019800 -1.000000 -0.000000 0.000000 0.630000 0.250000 255 0 2 255
0.534600 0.000000 0.039600 -1.000000 -0.000000 0.000000 0.510000 0.250000 255 0 2 255
0.534600 0.025752 0.038839 -1.000000 -0.000000 0.000000 0.514612 0.296822 255 0 2 255
0.534600 0.050514 0.036586 -1.000000 -0.000000 0.000000 0.528269 0.341844 255 0 2 255
0.534600 0.073335 0.032926 -1.000000 -0.000000 0.000000 0.550447 0.383337 255 0 2 255
0.534600 0.093338 0.028001 -1.000000 -0.000000 0.000000 0.580295 0.419706 255 0 2 255
0.534600 0.109754 0.022001 -1.000000 -0.000000 0.000000 0.616663 0.449553 255 0 2 255
0.534600 0.121952 0.015154 -1.000000 -0.000000 0.000000 0.658156 0.471731 255 0 2 255
0.534600 0.129464 0.007726 -1.000000 -0.000000 0.000000 0.703179 0.485389 255 0 2 255
0.534600 -0.012876 0.019420 -1.000000 -0.000000 -0.000000 0.632306 0.226589 255 0 2 255
0.534600 -0.025257 0.018293 -1.000000 -0.000000 -0.000000 0.639134 0.204078 255 0 2 255
0.534600 -0.036668 0.016463 -1.000000 -0.000000 -0.000000 0.650223 0.183331 255 0 2 255
0.534600 -0.046669 0.014001 -1.000000 -0.000000 -0.000000 0.665147 0.165147 255 0 2 255
0.534600 -0.054877 0.011000 -1.000000 -0.000000 -0.000000 0.683331 0.150224 255 0 2 255
0.534600 -0.060976 0.007577 -1.000000 -0.000000 -0.000000 0.704078 0.139134 255 0 2 255
0.534600 -0.064732 0.003863 -1.000000 -0.000000 -0.000000 0.726589 0.132306 255 0 2 255
0.534600 -0.066000 0.000000 -1.000000 -0.000000 -0.000000 0.750000 0.130000 255 0 2 255
0.534600 -0.064732 -0.003863 -1.000000 -0.000000 -0.000000 0.773411 0.132306 255 0 2 255
0.534600 -0.060976 -0.007577 -1.000000 -0.000000 -0.000000 0.795922 0.139135 255 0 2 255
0.534600 -0.054877 -0.011000 -1.000000 -0.000000 -0.000000 0.816668 0.150223 255 0 2 255
0.534600 -0.046669 -0.014001 -1.000000 -0.000000 -0.000000 0.834853 0.165147 255 0 2 255
0.534600 -0.036668 -0.016463 -1.000000 -0.000000 -0.000000 0.849776 0.183332 255 0 2 255
0.534600 -0.025257 -0.018293 -1.000000 -0.000000 -0.000000 0.860866 0.204078 255 0 2 255
0.534600 -0.012876 -0.019420 -1.000000 -0.000000 -0.000000 0.867694 0.226590 255 0 2 255
0.534600 -0.025752 -0.038839 -1.000000 -0.000000 -0.000000 0.985388 0.203178 255 0 2 255
0.534600 -0.050514 -0.036586 -1.000000 -0.000000 -0.000000 0.971731 0.158156 255 0 2 255
0.534600 -0.073335 -0.032926 -1.000000 -0.000000 -0.000000 0.949553 0.116663 255 0 2 255
0.534600 -0.093338 -0.028001 -1.000000 -0.000000 -0.000000 0.919706 0.080294 255 0 2 255
0.534600 -0.109754 -0.022001 -1.000000 -0.000000 -0.000000 0.883337 0.050447 255 0 2 255
0.534600 -0.121952 -0.015154 -1.000000 -0.000000 -0.000000 0.841844 0.028269 255 0 2 255
0.534600 -0.129464 -0.007726 -1.000000 -0.000000 -0.000000 0.796822 0.014612 255 0 2 255
0.534600 -0.132000 0.000000 -1.000000 -0.000000 -0.000000 0.750000 0.010000 255 0 2 255
0.534600 -0.129464 0.007726 -1.000000 -0.000000 -0.000000 0.703178 0.014612 255 0 2 255
0.534600 -0.121952 0.015154 -1.000000 -0.000000 -0.000000 0.658156 0.028269 255 0 2 255
0.534600 -0.109754 0.022001 -1.000000 -0.000000 -0.000000 0.616663 0.050447 255 0 2 255
0.534600 -0.093338 0.028001 -1.000000 -0.000000 -0.000000 0.580294 0.080294 255 0 2 255
0.534600 -0.073335 0.032926 -1.000000 -0.000000 -0.000000 0.550447 0.116663 255 0 2 255
0.534600 -0.050514 0.036586 -1.000000 -0.000000 -0.000000 0.528269 0.158156 255 0 2 255
0.534600 -0.025752 0.038839 -1.000000 -0.000000 -0.000000 0.514611 0.203179 255 0 2 255
4 0 1 2 3
4 4 5 6 7
4 8 9 10 11
4 12 13 14 15
4 16 17 18 19
4 20 21 22 23
4 24 25 26 27
4 28 29 30 31
4 32 33 34 35
4 36 37 38 39
4 40 41 42 43
4 44 45 46 47
4 48 49 50 51
4 52 53 54 55
4 56 57 58 59
4 60 61 62 63
4 64 65 66 67
4 68 69 70 71
4 72 73 74 75
4 76 77 78 79
4 80 81 82 83
4 84 85 86 87
4 88 89 90 91
4 92 93 94 95
4 96 97 98 99
4 100 101 102 103
4 104 105 106 107
4 108 109 110 111
4 112 113 114 115
4 116 117 118 119
4 120 121 122 123
4 124 125 126 127
32 128 129 130 131 132 133 134 135 136 137 138 139 140 141 142 143 144 145 146 147 148 149 150 151 152 153 154 155 156 157 158 159
3 160 161 162
3 163 164 165
3 166 167 168
3 169 170 171
3 172 173 174
3 175 176 177
3 178 179 180
3 181 182 183
3 184 185 186
3 187 188 189
3 190 191 192
3 193 194 195
3 196 197 198
3 199 200 201
3 202 203 204
3 205 206 207
3 208 209 210
3 211 212 213
3 214 215 216
3 217 218 219
3 220 221 222
3 223 224 225
3 226 227 228
3 229 230 231
3 232 233 234
3 235 236 237
3 238 239 240
3 241 242 243
3 244 245 246
3 247 248 249
3 250 251 252
3 253 254 255
34 256 257 258 259 260 261 262 263 264 265 266 267 268 269 270 271 272 273 274 275 276 277 278 279 280 281 282 283 284 285 286 287 288 289
34 282 281 290 291 292 293 294 295 296 297 298 299 300 301 302 303 304 265 264 305 306 307 308 309 310 311 312 313 314 315 316 317 318 319
